<?xml version="1.0" standalone="no"?>
<!DOCTYPE svg PUBLIC "-//W3C//DTD SVG 20010904//EN"
 "http://www.w3.org/TR/2001/REC-SVG-20010904/DTD/svg10.dtd">
<svg version="1.0" xmlns="http://www.w3.org/2000/svg"
 width="638.000000pt" height="638.000000pt" viewBox="0 0 638.000000 638.000000"
 preserveAspectRatio="xMidYMid meet">
<metadata>
Created by potrace 1.11, written by Peter Selinger 2001-2013
</metadata>
<g transform="translate(0.000000,638.000000) scale(0.100000,-0.100000)"
fill="#000000" stroke="none">
<path d="M4942 6282 c-15 -15 -19 -30 -16 -59 4 -42 32 -113 46 -113 4 0 8 -6
8 -14 0 -24 114 -132 163 -153 34 -16 77 -17 77 -3 0 17 22 7 49 -23 14 -15
44 -47 66 -71 81 -87 133 -148 205 -236 11 -14 24 -31 30 -37 6 -7 8 -13 4
-13 -3 0 -2 -6 4 -13 10 -11 74 -134 77 -147 2 -5 10 -26 43 -102 11 -25 18
-49 15 -52 -4 -3 -2 -6 4 -6 5 0 10 -6 11 -12 0 -7 17 -58 37 -113 20 -55 38
-104 39 -110 1 -5 10 -34 19 -64 20 -66 20 -61 2 -61 -8 0 -15 4 -15 9 0 4
-12 20 -26 35 -15 14 -24 26 -20 26 4 0 -9 17 -28 38 -20 20 -36 43 -36 50 0
7 -4 10 -10 7 -5 -3 -10 -2 -10 3 0 5 -11 22 -25 38 -25 29 -40 65 -49 114 -3
14 -5 25 -6 25 -1 0 -3 7 -5 15 -2 8 -10 34 -18 57 -9 22 -13 44 -10 47 4 3 1
6 -6 6 -7 0 -9 5 -6 10 3 6 2 10 -4 10 -6 0 -13 11 -17 25 -3 14 -10 25 -15
25 -5 0 -9 6 -9 14 0 18 -85 108 -94 99 -3 -3 -6 -1 -6 6 0 7 -4 10 -9 6 -5
-3 -13 0 -16 5 -12 19 -69 0 -97 -32 -16 -17 -33 -49 -39 -72 -12 -44 -14
-146 -4 -186 4 -14 8 -32 9 -40 1 -8 9 -33 16 -55 8 -22 15 -42 16 -45 9 -31
28 -70 34 -70 4 0 10 -10 14 -22 11 -45 115 -156 130 -141 3 4 6 1 6 -5 0 -7
17 -12 42 -12 34 0 46 6 69 31 26 30 29 30 51 15 12 -9 19 -16 15 -16 -6 0 16
-27 66 -81 9 -10 17 -23 17 -28 0 -5 4 -11 8 -13 8 -3 105 -128 157 -202 11
-15 25 -34 30 -40 17 -20 35 -50 41 -68 4 -10 9 -18 13 -18 4 0 18 -19 31 -42
13 -24 26 -45 30 -48 3 -3 24 -36 45 -75 24 -42 41 -63 43 -54 3 16 -28 151
-51 219 -20 60 -112 229 -131 242 -6 4 -7 8 -2 8 5 0 3 7 -4 15 -7 8 -10 15
-7 15 4 0 -1 19 -9 43 -9 23 -17 49 -19 57 -12 53 -19 77 -28 88 -5 6 -7 12
-4 12 3 0 -10 46 -29 103 -20 56 -37 107 -38 112 -2 6 -7 19 -11 30 -4 11 -21
52 -36 91 -15 39 -41 100 -58 136 -17 36 -31 70 -31 76 0 7 -4 12 -10 12 -5 0
-10 9 -10 20 0 11 -4 20 -8 20 -5 0 -16 17 -26 38 -17 36 -61 105 -81 128 -5
6 -17 22 -25 34 -8 13 -27 36 -42 51 -15 16 -25 29 -23 29 3 0 -15 21 -40 48
-138 146 -166 179 -171 199 -4 13 -10 23 -15 23 -5 0 -8 4 -6 9 3 12 -45 91
-55 91 -5 0 -8 5 -8 10 0 12 -37 50 -49 50 -5 0 -11 7 -15 15 -3 8 -12 15 -20
15 -8 0 -16 5 -18 11 -2 5 -22 13 -45 16 -32 4 -45 1 -61 -15z m170 -109 c44
-46 56 -103 23 -103 -22 0 -82 58 -89 86 -13 51 25 60 66 17z m349 -845 c50
-52 71 -161 39 -200 -16 -21 -20 -21 -45 -8 -51 27 -89 143 -66 203 13 33 42
35 72 5z"/>
<path d="M3780 6106 c-3 -2 -17 -7 -30 -9 -44 -8 -70 -19 -70 -29 0 -5 -4 -7
-9 -4 -15 10 -87 -72 -109 -123 -15 -36 -20 -68 -18 -113 2 -63 31 -158 47
-158 5 0 8 -4 7 -8 -4 -11 37 -63 94 -122 38 -38 198 -136 210 -129 2 1 21 -4
43 -10 46 -13 128 -13 199 -2 l49 8 249 -249 c136 -138 248 -254 248 -260 0
-5 4 -7 8 -4 5 3 15 -6 22 -19 7 -14 20 -25 28 -25 9 0 13 -3 9 -6 -3 -4 31
-43 77 -89 46 -45 86 -90 89 -99 4 -9 14 -16 23 -16 10 0 15 -3 11 -6 -3 -3
20 -33 51 -65 148 -153 172 -178 172 -182 0 -5 61 -73 141 -158 20 -22 34 -39
31 -39 -3 0 4 -8 14 -17 23 -21 83 -90 139 -157 22 -27 46 -54 53 -62 6 -7 12
-18 12 -25 0 -7 3 -10 6 -6 3 3 29 -24 57 -61 28 -37 56 -71 63 -77 6 -5 33
-39 59 -75 26 -36 51 -68 57 -71 5 -3 9 -9 9 -13 -1 -6 10 -22 42 -57 9 -10
14 -19 10 -19 -5 0 -1 -6 7 -13 8 -7 20 -20 25 -29 6 -9 34 -51 63 -95 61 -92
152 -268 155 -300 2 -27 10 -21 14 10 2 12 5 36 8 52 14 76 16 164 5 205 -6
25 -12 51 -12 58 -1 6 -5 12 -10 12 -4 0 -7 3 -6 8 6 18 -118 235 -166 291
-13 15 -15 21 -6 17 8 -4 5 1 -7 12 -13 11 -23 23 -23 27 0 3 -15 26 -32 50
-18 23 -42 55 -53 71 -11 15 -25 32 -30 38 -6 6 -36 45 -67 86 -31 41 -64 85
-74 96 -11 12 -32 39 -49 60 -31 39 -55 68 -90 107 -11 13 -38 45 -60 72 -22
26 -59 68 -82 92 -24 23 -41 43 -39 43 6 0 -92 107 -146 160 -27 26 -48 50
-48 53 0 4 -21 30 -47 57 -27 27 -106 110 -178 186 -71 75 -232 239 -357 365
-186 188 -226 233 -222 252 7 35 7 119 0 157 -10 51 -50 133 -77 160 -13 13
-17 19 -9 15 8 -5 -1 7 -20 26 -19 20 -37 34 -39 32 -2 -1 -11 5 -20 15 -22
24 -124 76 -186 94 -48 15 -205 25 -215 14z m253 -237 c59 -39 86 -113 59
-163 -9 -17 -15 -34 -15 -37 2 -7 -4 -8 -74 -15 -42 -5 -59 -2 -90 16 -73 42
-108 117 -81 175 26 58 130 70 201 24z"/>
<path d="M1630 5538 c-403 -51 -604 -537 -333 -807 65 -64 155 -114 240 -131
74 -16 217 -5 262 19 9 5 21 10 26 10 6 1 20 4 32 7 18 5 216 -189 1247 -1220
674 -674 1226 -1231 1226 -1237 0 -7 3 -10 6 -7 3 3 40 -29 82 -73 201 -204
232 -238 232 -247 0 -12 -229 -242 -241 -242 -5 0 -9 -8 -9 -17 0 -9 -3 -14
-6 -10 -3 3 -32 -20 -64 -51 -108 -105 -117 -111 -158 -101 -54 12 -179 3
-247 -17 -33 -10 -63 -17 -67 -16 -5 1 -8 -3 -8 -8 0 -5 -3 -9 -7 -8 -13 4
-93 -35 -93 -45 0 -4 -4 -6 -9 -2 -6 3 -14 -3 -20 -12 -6 -10 -11 -15 -11 -11
0 9 -34 -17 -58 -44 -9 -9 -19 -15 -24 -12 -4 3 -8 0 -8 -6 0 -6 -15 -25 -33
-43 -36 -35 -73 -87 -69 -99 1 -5 -3 -8 -8 -8 -5 0 -9 -3 -8 -7 1 -5 -4 -19
-12 -33 -19 -35 -17 -170 2 -170 5 0 7 -4 4 -9 -5 -8 65 -75 81 -77 5 0 22 -7
38 -14 18 -8 67 -13 125 -13 81 0 109 5 190 33 52 18 98 37 101 42 3 5 8 9 10
9 13 -2 49 13 49 19 0 5 9 12 20 15 11 4 33 19 47 33 15 15 28 25 28 22 1 -3
25 19 53 48 29 28 49 52 45 52 -4 0 2 7 13 15 10 8 15 15 11 15 -5 0 -1 7 7
16 9 8 16 23 16 33 0 9 5 22 12 29 6 6 12 41 13 76 1 60 3 66 36 92 19 16 51
45 71 66 21 21 41 38 45 38 4 0 24 18 43 40 19 22 41 40 48 40 6 0 12 6 12 13
0 7 10 17 23 22 12 6 21 16 20 23 -2 7 1 12 7 12 5 0 41 31 80 70 39 38 68 70
65 70 -3 0 12 18 35 40 22 21 40 42 40 44 0 7 112 116 146 141 14 11 35 28 45
38 11 9 19 14 19 10 0 -5 4 -3 8 2 9 14 51 41 151 100 28 17 51 34 51 38 0 5
5 5 10 2 6 -3 10 -1 10 5 0 6 5 8 10 5 6 -3 10 -1 10 4 0 6 7 11 15 11 8 0 15
4 15 10 0 5 3 9 8 8 7 -3 82 40 92 52 3 3 20 12 38 19 17 8 32 17 32 22 0 5 7
9 15 9 8 0 15 5 15 10 0 6 5 10 10 10 16 0 98 60 147 107 13 12 23 19 23 16 0
-3 9 2 20 12 20 18 21 18 38 -1 10 -10 18 -22 18 -26 -1 -4 6 -16 15 -26 9
-10 19 -30 22 -43 6 -23 40 -75 35 -54 -1 6 5 24 15 41 9 17 13 34 10 38 -4 3
-2 6 4 6 6 0 14 12 19 28 9 31 9 32 17 55 15 37 15 46 6 88 -11 51 -44 126
-67 152 -8 9 -12 17 -8 17 8 0 -54 94 -66 98 -4 2 -8 9 -8 15 0 7 -11 24 -24
39 -14 14 -23 28 -20 30 2 3 -7 15 -21 28 -14 13 -25 29 -25 36 0 7 -10 20
-22 28 -12 9 -19 16 -14 16 5 0 0 8 -11 18 -11 9 -24 24 -29 33 -11 20 -71 94
-101 125 -13 13 -23 26 -23 29 0 4 -13 20 -30 37 -17 16 -30 33 -30 36 0 4
-20 28 -43 53 -23 26 -60 68 -82 94 -22 26 -56 65 -75 86 -19 20 -57 63 -85
94 -27 32 -68 77 -90 101 -22 23 -71 77 -110 120 -38 42 -98 105 -132 141 -35
35 -63 66 -63 67 0 4 -147 160 -251 266 l-75 77 4 54 c7 87 6 120 -2 189 -9
81 -68 209 -124 270 -23 25 -42 49 -42 53 0 5 -4 6 -9 3 -5 -3 -16 6 -25 19
-9 14 -21 23 -26 20 -6 -4 -10 -2 -10 3 0 13 -80 54 -150 78 -115 39 -284 18
-355 -44 -14 -12 -29 -22 -34 -22 -5 0 -20 -15 -32 -32 -13 -18 -26 -35 -30
-38 -11 -8 -50 -90 -43 -90 4 0 2 -6 -4 -13 -35 -42 -26 -238 15 -337 3 -8 7
-17 7 -20 5 -20 61 -110 69 -110 6 0 8 -3 4 -6 -3 -3 4 -16 16 -29 12 -12 29
-31 38 -41 46 -55 176 -136 239 -150 14 -3 39 -8 55 -11 57 -12 140 -6 202 16
l62 21 65 -65 c36 -35 66 -70 66 -76 0 -7 3 -10 6 -6 4 3 23 -13 43 -35 20
-23 69 -74 109 -114 39 -40 72 -78 72 -84 0 -6 3 -9 8 -7 4 3 16 -7 27 -20 11
-14 54 -61 96 -104 43 -44 75 -79 73 -79 -3 0 25 -30 61 -66 36 -36 65 -67 65
-69 0 -2 17 -22 38 -43 40 -42 139 -152 194 -216 18 -21 50 -56 71 -77 20 -22
34 -39 31 -39 -3 0 11 -16 30 -35 20 -19 34 -35 30 -35 -3 0 11 -16 30 -35 20
-19 34 -35 30 -35 -3 0 9 -16 28 -35 18 -18 46 -52 62 -75 17 -22 33 -40 38
-40 4 0 8 -6 8 -14 0 -8 11 -23 25 -34 14 -11 25 -25 25 -30 0 -6 6 -15 14
-19 7 -4 19 -19 25 -31 11 -21 10 -27 -8 -43 -12 -11 -21 -17 -21 -14 0 3 -10
-4 -22 -15 -13 -12 -57 -44 -98 -70 -41 -27 -81 -54 -87 -60 -7 -6 -13 -8 -13
-4 0 4 -8 0 -17 -9 -10 -8 -22 -16 -28 -17 -29 -3 -55 -13 -55 -21 0 -5 -3 -8
-7 -7 -18 5 -191 -95 -206 -119 -4 -7 -14 -13 -22 -13 -8 0 -19 -8 -24 -18 -6
-9 -11 -13 -11 -7 0 5 -13 -5 -29 -23 -17 -17 -33 -32 -36 -32 -4 0 -20 -14
-36 -31 -16 -17 -29 -28 -29 -23 0 4 -6 -1 -14 -11 -11 -16 -15 -17 -33 -4
-10 8 -37 34 -59 59 -21 24 -85 91 -141 147 -56 57 -99 103 -97 103 3 0 -60
65 -140 144 -79 79 -142 147 -139 150 4 3 -2 6 -12 6 -10 0 -16 2 -13 5 3 3
-75 87 -173 186 -99 99 -179 185 -179 191 0 6 -2 9 -5 6 -8 -7 -105 87 -105
101 0 6 -6 10 -12 9 -7 -2 -13 2 -13 7 1 6 -35 46 -79 90 -44 44 -76 73 -72
65 4 -8 0 -6 -8 5 -34 44 -75 83 -80 77 -3 -3 -6 0 -6 6 0 15 -627 642 -634
635 -3 -4 -6 -2 -6 3 0 14 -67 83 -74 76 -3 -3 -6 0 -6 6 0 6 -50 61 -111 122
-61 61 -107 105 -103 98 4 -7 -18 14 -49 47 -31 33 -57 63 -57 68 0 4 -4 6 -9
2 -5 -3 -12 4 -16 15 -3 11 -10 20 -14 20 -5 0 -81 72 -170 161 l-162 161 15
51 c38 132 41 240 9 317 -3 8 -7 21 -9 28 -13 63 -120 175 -210 220 -92 46
-193 63 -294 50z m118 -309 c123 -60 111 -230 -22 -293 -80 -38 -190 2 -223
82 -31 74 11 172 90 211 54 27 99 26 155 0z m2379 -495 c108 -93 81 -273 -42
-288 -38 -5 -100 16 -129 43 -12 12 -26 18 -30 14 -4 -5 -6 -3 -5 2 2 6 -7 30
-20 54 -32 61 -31 128 2 165 9 11 17 23 17 27 0 7 44 26 75 31 33 6 96 -17
132 -48z m-77 -3552 c14 -6 22 -11 18 -11 -4 -1 -4 -11 1 -23 10 -29 -6 -77
-33 -101 -54 -47 -66 -57 -66 -53 0 1 -23 -5 -51 -14 -85 -29 -149 -2 -149 63
0 57 73 122 170 150 24 7 83 1 110 -11z"/>
<path d="M517 3910 c-52 -13 -110 -44 -152 -82 -42 -36 -97 -113 -88 -122 4
-3 2 -6 -3 -6 -11 0 -27 -41 -44 -119 -17 -73 -7 -219 20 -301 12 -36 25 -67
29 -70 3 -3 12 -16 19 -30 22 -46 37 -65 90 -117 30 -29 60 -53 68 -53 8 0 14
-4 14 -9 0 -8 25 -18 55 -21 6 -1 16 -6 23 -12 25 -21 143 -21 211 1 57 18 67
18 85 5 11 -7 18 -14 14 -14 -7 0 177 -191 480 -498 116 -119 212 -219 212
-224 0 -4 4 -8 9 -8 12 0 131 -120 131 -131 0 -5 4 -9 10 -9 5 0 84 -73 174
-162 245 -243 377 -368 387 -368 6 0 7 -5 4 -10 -3 -6 -2 -10 4 -10 5 0 39
-29 76 -65 36 -36 70 -65 76 -65 6 0 7 -4 4 -10 -3 -5 -1 -10 5 -10 6 0 33
-22 60 -50 27 -27 51 -50 55 -50 3 0 30 -25 60 -55 29 -30 58 -55 65 -55 6 0
8 -4 5 -10 -3 -5 -1 -10 6 -10 6 0 25 -14 41 -30 29 -31 31 -54 8 -114 -5 -15
-7 -26 -5 -26 2 0 0 -12 -6 -27 -6 -16 -12 -35 -14 -43 -2 -8 -16 -53 -30
-100 -15 -47 -27 -91 -28 -97 0 -7 -3 -13 -7 -13 -4 0 -7 -6 -7 -12 0 -7 -4
-29 -9 -48 -10 -45 -10 -172 1 -196 5 -11 9 -21 10 -24 2 -3 6 -15 10 -27 4
-13 12 -23 17 -23 5 0 7 -4 4 -9 -14 -22 174 -176 226 -185 7 -1 23 -8 36 -14
12 -7 22 -10 22 -6 0 3 6 2 13 -3 6 -6 30 -14 52 -18 22 -5 47 -10 55 -12 30
-7 66 -5 125 6 33 6 75 13 94 16 19 3 41 11 50 16 14 9 14 10 0 6 -8 -3 -49
11 -90 31 -41 19 -77 34 -81 34 -5 -1 -8 2 -8 7 0 5 -12 16 -27 23 -39 20 -77
42 -83 48 -3 3 -21 17 -40 30 -19 13 -43 33 -52 45 -10 11 -24 27 -31 35 -31
34 -40 145 -17 215 5 16 10 33 10 37 1 4 12 32 25 63 14 30 22 55 19 55 -4 0
-2 6 3 13 6 6 16 30 22 52 7 22 16 49 21 60 8 17 33 104 45 158 2 10 6 26 9
35 3 9 7 28 10 42 3 14 8 36 11 50 3 14 8 36 10 50 2 14 6 36 9 50 3 13 8 42
11 65 4 22 8 51 10 65 15 97 23 161 30 240 3 36 8 79 10 95 4 35 18 198 19
236 1 14 6 26 12 26 6 0 37 13 69 29 61 30 210 168 199 185 -3 5 -1 9 4 9 12
0 48 89 61 149 16 72 6 194 -21 258 -6 16 -11 31 -10 36 1 4 -3 7 -10 7 -6 0
-8 3 -5 6 7 7 -29 63 -48 76 -5 4 -6 8 -2 8 13 0 -55 64 -108 100 -27 19 -52
33 -54 31 -2 -1 -7 1 -10 6 -6 9 -82 42 -111 48 -8 2 -35 8 -60 14 -48 11
-225 4 -225 -8 0 -2 -7 -4 -15 -6 -8 -2 -28 -9 -45 -16 -16 -7 -32 -13 -35
-14 -17 -4 -109 -63 -105 -67 3 -2 -6 -11 -20 -18 -14 -7 -25 -16 -25 -20 0
-4 -13 -21 -29 -38 -16 -16 -27 -33 -24 -36 4 -3 1 -6 -6 -6 -7 0 -9 -4 -6
-10 3 -5 3 -10 -2 -10 -10 0 -30 -45 -49 -106 -15 -52 -11 -259 6 -259 1 0 4
-11 6 -25 2 -13 10 -28 17 -32 6 -4 9 -8 5 -8 -13 0 48 -100 69 -113 7 -4 13
-15 13 -22 0 -8 3 -14 8 -13 4 2 22 -12 40 -31 17 -19 32 -31 32 -27 0 4 9 -2
21 -13 12 -11 46 -30 76 -43 l54 -23 -6 -120 c-12 -233 -18 -316 -30 -410 -1
-11 -3 -30 -4 -42 0 -13 -5 -23 -9 -23 -12 0 -74 53 -156 136 -39 38 -79 73
-89 77 -9 3 -17 13 -17 22 0 8 -3 14 -8 13 -7 -2 -106 92 -353 335 -77 75
-145 137 -151 137 -6 0 -9 3 -5 6 7 7 -61 74 -76 74 -5 0 -8 3 -4 6 5 5 -27
44 -37 44 -7 0 -185 180 -178 180 4 1 -4 7 -18 15 -14 7 -24 16 -23 19 4 9
-46 56 -59 56 -6 0 -9 2 -6 5 3 3 -75 87 -173 186 -99 99 -179 184 -179 189 0
5 -9 12 -20 15 -11 3 -20 10 -20 14 0 4 -50 59 -110 122 -101 104 -110 117
-105 144 15 75 19 114 18 170 0 69 -10 152 -20 169 -4 6 -9 20 -10 31 -2 10
-7 22 -11 25 -4 3 -8 11 -10 18 -8 41 -132 189 -146 175 -3 -3 -6 -1 -6 6 0 7
-33 27 -72 46 -80 38 -174 51 -241 35z m141 -331 c35 -15 78 -79 87 -130 14
-76 -36 -169 -100 -185 -35 -9 -99 11 -126 39 -81 84 -67 236 26 280 34 16 70
15 113 -4z m2438 -938 c84 -38 118 -119 93 -221 -5 -21 -78 -90 -95 -90 -8 0
-14 -4 -14 -8 0 -10 -75 -8 -115 3 -16 4 -38 15 -47 23 -10 8 -18 11 -18 6 0
-14 -46 58 -55 85 -11 35 -8 97 6 123 47 88 151 122 245 79z"/>
<path d="M465 1960 c-4 -6 -11 -8 -16 -4 -9 5 -63 -30 -97 -63 -54 -53 -65
-200 -22 -303 25 -58 27 -61 88 -127 37 -40 142 -120 142 -108 0 3 10 -1 23
-9 33 -22 102 -37 169 -38 l60 -1 74 -73 c41 -39 74 -71 74 -69 0 1 28 -25 63
-59 35 -33 91 -86 126 -116 34 -30 82 -74 107 -98 24 -24 44 -41 44 -38 0 2
19 -13 42 -35 23 -21 46 -39 51 -39 4 0 5 -5 2 -10 -3 -6 -1 -10 4 -10 12 0
39 -21 87 -67 18 -18 37 -33 42 -33 5 0 17 -11 28 -24 10 -14 21 -23 26 -20 4
3 8 1 8 -3 0 -5 26 -28 58 -53 82 -64 81 -63 107 -88 14 -13 25 -20 25 -16 0
4 9 -3 20 -16 11 -13 20 -20 20 -15 0 4 15 -6 34 -21 61 -52 91 -74 99 -74 5
0 15 -6 22 -12 35 -31 45 -38 45 -31 0 4 5 0 11 -10 6 -9 14 -15 20 -12 5 4 9
1 9 -4 0 -6 7 -11 15 -11 8 0 15 -4 15 -10 0 -5 4 -10 9 -10 5 0 40 -18 77
-40 38 -22 103 -54 145 -70 68 -26 92 -30 210 -34 123 -3 141 1 77 19 -5 2
-11 4 -15 5 -5 1 -11 2 -15 1 -5 0 -8 4 -8 10 0 5 -4 7 -10 4 -5 -3 -10 -1
-10 4 0 6 -3 10 -7 10 -14 -3 -73 25 -73 34 0 4 -4 5 -10 2 -5 -3 -10 -1 -10
5 0 6 -4 8 -10 5 -5 -3 -10 -1 -10 6 0 7 -3 10 -6 6 -3 -3 -15 3 -27 13 -11
11 -24 17 -29 14 -4 -3 -8 0 -8 5 0 6 -6 11 -14 11 -8 0 -17 7 -20 16 -3 8
-10 12 -16 9 -5 -3 -10 -2 -10 2 0 5 -16 17 -35 27 -19 11 -35 23 -35 28 0 4
-7 8 -15 8 -8 0 -15 5 -15 10 0 6 -5 10 -11 10 -11 0 -92 60 -97 73 -2 4 -8 5
-13 1 -5 -3 -9 -1 -9 4 0 5 -21 24 -47 43 -47 33 -83 62 -109 87 -7 6 -15 12
-19 12 -3 0 -16 10 -29 23 -13 12 -43 38 -66 56 -23 19 -48 41 -56 48 -7 7
-16 13 -19 13 -4 0 -19 12 -35 28 -44 44 -110 102 -110 98 0 -3 -20 14 -45 37
-25 23 -68 62 -96 87 -28 25 -67 61 -86 80 -20 19 -40 34 -45 33 -4 -2 -8 4
-8 12 0 8 -4 15 -8 15 -5 0 -36 27 -70 60 -34 33 -67 60 -73 60 -5 0 -7 5 -4
10 3 6 2 10 -3 10 -6 0 -47 37 -92 82 -65 65 -80 85 -75 102 29 95 27 151 -11
236 -1 3 -5 15 -9 28 -4 12 -12 22 -18 22 -6 0 -7 3 -4 7 4 3 -5 17 -19 30
-14 12 -22 23 -18 23 3 0 -12 18 -35 40 -22 22 -43 40 -46 40 -3 0 -15 9 -27
19 -23 23 -111 67 -160 82 -48 15 -156 20 -163 9z m212 -261 c33 -21 73 -90
73 -127 0 -29 -45 -72 -77 -72 -106 0 -194 107 -159 192 7 16 15 29 17 28 2
-1 11 1 19 4 39 12 47 13 70 4 14 -5 39 -18 57 -29z"/>
<path d="M5420 1849 c-58 -33 -71 -44 -163 -136 -81 -80 -98 -99 -149 -168
-41 -54 -132 -197 -130 -202 1 -2 -5 -18 -13 -38 -8 -19 -16 -42 -18 -52 -2
-10 -9 -28 -16 -41 -15 -29 -119 -130 -183 -180 -27 -20 -48 -40 -48 -44 0 -4
-4 -8 -9 -8 -10 0 -223 -158 -232 -172 -3 -5 -10 -9 -14 -8 -4 1 -18 -7 -31
-19 -13 -11 -24 -18 -24 -14 0 3 -9 -4 -20 -17 -11 -13 -20 -20 -20 -17 0 7
-125 -73 -152 -97 -10 -9 -18 -14 -18 -11 0 8 -254 -166 -258 -176 -2 -5 -10
-9 -17 -9 -8 0 -20 -9 -28 -20 -8 -11 -16 -18 -18 -16 -3 3 -24 -13 -48 -35
-25 -21 -49 -39 -54 -39 -6 0 -7 -3 -4 -7 4 -3 -2 -12 -13 -20 -26 -19 -26
-37 0 -23 11 6 20 8 20 4 0 -3 11 1 25 10 14 9 25 14 25 12 0 -3 26 7 58 21
91 40 107 46 115 45 4 -1 7 4 7 11 0 7 19 28 42 47 23 19 50 43 60 53 10 9 19
16 21 15 3 -3 101 64 108 75 3 5 9 8 12 8 10 -1 68 32 87 49 9 8 38 26 64 39
27 14 50 31 53 38 3 7 9 11 13 8 4 -2 20 7 36 22 16 15 30 26 32 25 2 -2 54
29 62 38 3 3 43 33 88 68 46 34 81 62 77 62 -4 0 10 12 31 26 21 15 53 40 71
58 18 17 38 36 45 41 52 40 86 74 80 80 -4 4 -2 5 3 4 12 -4 93 37 118 59 9 8
17 12 17 9 0 -18 161 137 229 221 24 28 40 52 37 52 -3 0 5 11 17 24 13 13 29
37 37 53 8 15 18 30 21 33 12 9 78 148 85 177 27 117 -9 142 -116 82z m-47
-238 c8 -30 -32 -99 -98 -167 -69 -73 -112 -89 -107 -40 6 53 72 143 146 197
46 34 52 35 59 10z"/>
<path d="M648 766 c-10 -7 -18 -19 -18 -26 0 -14 58 -70 71 -70 4 0 14 -6 21
-13 14 -13 59 -35 69 -33 3 0 13 -5 22 -12 8 -7 27 -15 41 -18 38 -7 180 -83
261 -140 104 -73 203 -136 207 -132 2 1 24 -11 51 -26 26 -15 47 -25 47 -21 0
4 7 2 15 -5 8 -7 15 -9 15 -5 0 4 7 2 15 -5 8 -7 15 -10 15 -7 0 3 16 -1 35
-9 41 -17 47 -4 8 17 -53 27 -158 93 -180 113 -13 11 -23 16 -23 12 0 -4 -6
-1 -13 6 -8 7 -37 29 -65 48 -63 43 -76 67 -40 74 64 13 57 55 -21 119 -50 41
-198 106 -281 123 -19 4 -42 9 -50 12 -44 11 -186 10 -202 -2z m255 -90 c25
-7 48 -11 51 -8 4 3 6 0 6 -6 0 -7 5 -12 11 -12 18 0 56 -35 51 -48 -6 -18
-55 -14 -119 10 -32 12 -61 21 -65 20 -5 -1 -8 5 -8 14 0 8 -4 12 -10 9 -5 -3
-10 0 -10 9 0 27 29 31 93 12z"/>
</g>
</svg>
